<?xml version="1.0" standalone="no"?>
<!DOCTYPE svg PUBLIC "-//W3C//DTD SVG 20010904//EN"
 "http://www.w3.org/TR/2001/REC-SVG-20010904/DTD/svg10.dtd">
<svg version="1.0" xmlns="http://www.w3.org/2000/svg"
 width="513.000000pt" height="375.000000pt" viewBox="0 0 513.000000 375.000000"
 preserveAspectRatio="xMidYMid meet">
<metadata>
Created by potrace 1.13, written by Peter Selinger 2001-2015
</metadata>
<g transform="translate(0.000000,375.000000) scale(0.100000,-0.100000)"
fill="#000000" stroke="none">
<path d="M507 3493 c-14 -38 -29 -75 -32 -84 -5 -13 -1 -15 19 -12 24 5 26 3
26 -30 0 -33 -3 -36 -32 -40 l-33 -4 33 -1 32 -2 0 -164 0 -165 -32 -4 -33 -4
33 -1 32 -2 0 -154 0 -155 -32 -4 -33 -4 33 -1 32 -2 0 -159 0 -160 -32 -4
-33 -4 33 -1 32 -2 0 -159 0 -160 -32 -4 -33 -4 33 -1 32 -2 0 -154 0 -155
-32 -4 -33 -4 33 -1 32 -2 0 -154 0 -155 -32 -4 -33 -4 33 -1 32 -2 0 -164 0
-165 -32 -4 -33 -4 33 -1 32 -2 0 -154 0 -155 -32 -4 -33 -4 33 -1 32 -2 0
-175 0 -175 2176 0 2176 0 -6 -25 -6 -25 49 20 c28 11 67 27 88 35 l38 16 -65
28 c-108 46 -112 47 -104 17 l6 -26 -2161 0 -2161 0 0 154 0 155 33 4 32 4
-32 1 -33 2 0 154 0 155 33 4 32 4 -32 1 -33 2 0 164 0 165 33 4 32 4 -32 1
-33 2 0 154 0 155 33 4 32 4 -32 1 -33 2 0 154 0 155 33 4 32 4 -32 1 -33 2 0
159 0 160 33 4 32 4 -32 1 -33 2 0 159 0 160 33 4 32 4 -32 1 -33 2 0 154 0
155 33 4 32 4 -32 1 -33 2 0 164 0 165 33 4 32 4 -32 1 c-31 2 -33 4 -33 38 0
35 1 36 30 31 l29 -6 -19 49 c-34 86 -49 120 -53 120 -2 0 -16 -30 -30 -67z"/>
</g>
</svg>
