<?xml version="1.0" standalone="no"?>
<!DOCTYPE svg PUBLIC "-//W3C//DTD SVG 20010904//EN"
 "http://www.w3.org/TR/2001/REC-SVG-20010904/DTD/svg10.dtd">
<svg version="1.0" xmlns="http://www.w3.org/2000/svg"
 width="478.000000pt" height="273.000000pt" viewBox="0 0 478.000000 273.000000"
 preserveAspectRatio="xMidYMid meet">
<metadata>
Created by potrace 1.13, written by Peter Selinger 2001-2015
</metadata>
<g transform="translate(0.000000,273.000000) scale(0.100000,-0.100000)"
fill="#000000" stroke="none">
<path d="M1264 2290 c-11 -4 -43 -8 -71 -8 -113 -1 -279 -45 -396 -104 -271
-136 -463 -355 -556 -634 -49 -147 -64 -251 -58 -389 25 -494 348 -888 834
-1017 76 -20 110 -23 253 -22 145 1 177 4 263 27 104 28 247 91 340 150 75 48
205 173 266 256 146 198 214 401 214 646 1 160 -20 270 -76 410 -93 232 -294
453 -512 562 -128 65 -306 113 -414 113 -26 0 -51 4 -56 9 -6 5 -19 5 -31 1z
m6 -252 c0 -123 -3 -281 -7 -353 l-7 -130 -22 310 c-30 420 -31 395 6 395 l30
0 0 -222z m256 187 c184 -46 330 -125 463 -251 98 -92 162 -179 227 -309 82
-165 107 -272 108 -465 0 -127 -3 -170 -21 -240 -50 -197 -148 -368 -299 -518
-51 -52 -98 -92 -103 -90 -6 1 -147 190 -314 420 l-305 416 4 454 c3 249 7
490 10 536 l6 82 66 -6 c37 -4 108 -17 158 -29z m-342 3 c6 -27 67 -941 63
-944 -1 -1 -41 86 -89 194 -48 109 -137 309 -198 445 -61 137 -110 250 -108
252 24 21 227 73 290 74 31 1 38 -3 42 -21z m-148 -546 c116 -262 210 -478
209 -479 -2 -3 -953 94 -1001 102 l-32 5 14 73 c60 315 256 591 524 741 36 20
67 36 70 36 3 0 100 -215 216 -478z m-279 -455 c276 -29 504 -55 506 -58 47
-55 600 -826 601 -837 2 -25 -219 -133 -327 -160 -446 -112 -906 64 -1152 441
-114 176 -163 329 -172 535 l-6 132 24 0 c13 0 250 -24 526 -53z"/>
<path d="M2690 2065 l0 -145 145 0 145 0 0 145 0 145 -145 0 -145 0 0 -145z
m250 0 l0 -115 -110 0 -110 0 0 115 0 115 110 0 110 0 0 -115z"/>
<path d="M2690 1635 l0 -155 145 0 145 0 0 155 0 155 -145 0 -145 0 0 -155z
m250 5 l0 -120 -110 0 -110 0 0 120 0 120 110 0 110 0 0 -120z"/>
<path d="M2690 1225 l0 -155 145 0 145 0 0 155 0 155 -145 0 -145 0 0 -155z
m250 0 l0 -125 -110 0 -110 0 0 125 0 125 110 0 110 0 0 -125z"/>
<path d="M2690 795 l0 -155 145 0 145 0 0 155 0 155 -145 0 -145 0 0 -155z
m250 0 l0 -125 -110 0 -110 0 0 125 0 125 110 0 110 0 0 -125z"/>
<path d="M2690 390 l0 -150 145 0 145 0 0 150 0 150 -145 0 -145 0 0 -150z
m250 0 l0 -120 -110 0 -110 0 0 120 0 120 110 0 110 0 0 -120z"/>
</g>
</svg>
